<svg width="15" height="25" viewBox="0 0 15 25" fill="none" xmlns="http://www.w3.org/2000/svg">
<path d="M14.026 24.9851L14.026 21.5284L10.5238 21.5284L10.5238 24.9851L14.026 24.9851ZM7.0216 18.0717L7.0216 21.5284L10.5238 21.5284L10.5238 18.0717L7.0216 18.0717ZM3.5194 14.615L3.5194 18.0717L7.0216 18.0717L7.0216 14.615L3.5194 14.615ZM3.5194 11.1582L0.0172015 11.1582L0.0172012 14.615L3.5194 14.615L3.5194 11.1582ZM7.0216 7.70152L7.0216 11.1582L3.5194 11.1582L3.5194 7.70152L7.0216 7.70152ZM7.0216 7.70152L10.5238 7.70152L10.5238 4.24481L7.0216 4.24481L7.0216 7.70152ZM14.026 0.788087L14.026 4.24481L10.5238 4.24481L10.5238 0.788087L14.026 0.788087Z" fill="#EA5455"/>
</svg>
