<svg width="22" height="22" viewBox="0 0 22 22" fill="none" xmlns="http://www.w3.org/2000/svg">
<path d="M8.09326 18.5484V15.9469H5.4917V13.3453H2.89014V10.7437H0.288574V2.93906H2.89014V0.337494H8.09326V2.93906H10.6948V0.337494H15.898V2.93906H18.4995V10.7437H15.898V13.3453H13.2964V15.9469H10.6948V18.5484H8.09326Z" fill="#977641" fill-opacity="0.75"/>
<path d="M8.09326 18.5484H7.19326V19.4484H8.09326V18.5484ZM8.09326 15.9469H8.99326V15.0469H8.09326V15.9469ZM5.4917 15.9469H4.5917V16.8469H5.4917V15.9469ZM5.4917 13.3453H6.3917V12.4453H5.4917V13.3453ZM2.89014 13.3453H1.99014V14.2453H2.89014V13.3453ZM2.89014 10.7437H3.79014V9.84374H2.89014V10.7437ZM0.288574 10.7437H-0.611426V11.6437H0.288574V10.7437ZM0.288574 2.93906V2.03906H-0.611426V2.93906H0.288574ZM2.89014 2.93906V3.83906H3.79014V2.93906H2.89014ZM2.89014 0.337494V-0.562506H1.99014V0.337494H2.89014ZM8.09326 0.337494H8.99326V-0.562506H8.09326V0.337494ZM8.09326 2.93906H7.19326V3.83906H8.09326V2.93906ZM10.6948 2.93906V3.83906H11.5948V2.93906H10.6948ZM10.6948 0.337494V-0.562506H9.79482V0.337494H10.6948ZM15.898 0.337494H16.798V-0.562506H15.898V0.337494ZM15.898 2.93906H14.998V3.83906H15.898V2.93906ZM18.4995 2.93906H19.3995V2.03906H18.4995V2.93906ZM18.4995 10.7437V11.6437H19.3995V10.7437H18.4995ZM15.898 10.7437V9.84374H14.998V10.7437H15.898ZM15.898 13.3453V14.2453H16.798V13.3453H15.898ZM13.2964 13.3453V12.4453H12.3964V13.3453H13.2964ZM13.2964 15.9469V16.8469H14.1964V15.9469H13.2964ZM10.6948 15.9469V15.0469H9.79482V15.9469H10.6948ZM10.6948 18.5484V19.4484H11.5948V18.5484H10.6948ZM8.99326 18.5484V15.9469H7.19326V18.5484H8.99326ZM8.09326 15.0469H5.4917V16.8469H8.09326V15.0469ZM6.3917 15.9469V13.3453H4.5917V15.9469H6.3917ZM5.4917 12.4453H2.89014V14.2453H5.4917V12.4453ZM3.79014 13.3453V10.7437H1.99014V13.3453H3.79014ZM2.89014 9.84374H0.288574V11.6437H2.89014V9.84374ZM1.18857 10.7437V2.93906H-0.611426V10.7437H1.18857ZM0.288574 3.83906H2.89014V2.03906H0.288574V3.83906ZM3.79014 2.93906V0.337494H1.99014V2.93906H3.79014ZM2.89014 1.23749H8.09326V-0.562506H2.89014V1.23749ZM7.19326 0.337494V2.93906H8.99326V0.337494H7.19326ZM8.09326 3.83906H10.6948V2.03906H8.09326V3.83906ZM11.5948 2.93906V0.337494H9.79482V2.93906H11.5948ZM10.6948 1.23749H15.898V-0.562506H10.6948V1.23749ZM14.998 0.337494V2.93906H16.798V0.337494H14.998ZM15.898 3.83906H18.4995V2.03906H15.898V3.83906ZM17.5995 2.93906V10.7437H19.3995V2.93906H17.5995ZM18.4995 9.84374H15.898V11.6437H18.4995V9.84374ZM14.998 10.7437V13.3453H16.798V10.7437H14.998ZM15.898 12.4453H13.2964V14.2453H15.898V12.4453ZM12.3964 13.3453V15.9469H14.1964V13.3453H12.3964ZM13.2964 15.0469H10.6948V16.8469H13.2964V15.0469ZM9.79482 15.9469V18.5484H11.5948V15.9469H9.79482ZM10.6948 17.6484H8.09326V19.4484H10.6948V17.6484Z" fill="#977641"/>
</svg>
