<svg width="20" height="19" viewBox="0 0 20 19" fill="none" xmlns="http://www.w3.org/2000/svg">
<path d="M8.66202 18.5484V15.9469H6.06046V13.3453H3.45889V10.7437H0.85733V2.93906H3.45889V0.337494H8.66202V2.93906H11.2636V0.337494H16.4667V2.93906H19.0683V10.7437H16.4667V13.3453H13.8651V15.9469H11.2636V18.5484H8.66202Z" fill="#977641" fill-opacity="0.05"/>
<path d="M8.66202 18.5484H7.76202V19.4484H8.66202V18.5484ZM8.66202 15.9469H9.56202V15.0469H8.66202V15.9469ZM6.06046 15.9469H5.16046V16.8469H6.06046V15.9469ZM6.06046 13.3453H6.96046V12.4453H6.06046V13.3453ZM3.45889 13.3453H2.55889V14.2453H3.45889V13.3453ZM3.45889 10.7437H4.35889V9.84374H3.45889V10.7437ZM0.85733 10.7437H-0.0426697V11.6437H0.85733V10.7437ZM0.85733 2.93906V2.03906H-0.0426697V2.93906H0.85733ZM3.45889 2.93906V3.83906H4.35889V2.93906H3.45889ZM3.45889 0.337494V-0.562506H2.55889V0.337494H3.45889ZM8.66202 0.337494H9.56202V-0.562506H8.66202V0.337494ZM8.66202 2.93906H7.76202V3.83906H8.66202V2.93906ZM11.2636 2.93906V3.83906H12.1636V2.93906H11.2636ZM11.2636 0.337494V-0.562506H10.3636V0.337494H11.2636ZM16.4667 0.337494H17.3667V-0.562506H16.4667V0.337494ZM16.4667 2.93906H15.5667V3.83906H16.4667V2.93906ZM19.0683 2.93906H19.9683V2.03906H19.0683V2.93906ZM19.0683 10.7437V11.6437H19.9683V10.7437H19.0683ZM16.4667 10.7437V9.84374H15.5667V10.7437H16.4667ZM16.4667 13.3453V14.2453H17.3667V13.3453H16.4667ZM13.8651 13.3453V12.4453H12.9651V13.3453H13.8651ZM13.8651 15.9469V16.8469H14.7651V15.9469H13.8651ZM11.2636 15.9469V15.0469H10.3636V15.9469H11.2636ZM11.2636 18.5484V19.4484H12.1636V18.5484H11.2636ZM9.56202 18.5484V15.9469H7.76202V18.5484H9.56202ZM8.66202 15.0469H6.06046V16.8469H8.66202V15.0469ZM6.96046 15.9469V13.3453H5.16046V15.9469H6.96046ZM6.06046 12.4453H3.45889V14.2453H6.06046V12.4453ZM4.35889 13.3453V10.7437H2.55889V13.3453H4.35889ZM3.45889 9.84374H0.85733V11.6437H3.45889V9.84374ZM1.75733 10.7437V2.93906H-0.0426697V10.7437H1.75733ZM0.85733 3.83906H3.45889V2.03906H0.85733V3.83906ZM4.35889 2.93906V0.337494H2.55889V2.93906H4.35889ZM3.45889 1.23749H8.66202V-0.562506H3.45889V1.23749ZM7.76202 0.337494V2.93906H9.56202V0.337494H7.76202ZM8.66202 3.83906H11.2636V2.03906H8.66202V3.83906ZM12.1636 2.93906V0.337494H10.3636V2.93906H12.1636ZM11.2636 1.23749H16.4667V-0.562506H11.2636V1.23749ZM15.5667 0.337494V2.93906H17.3667V0.337494H15.5667ZM16.4667 3.83906H19.0683V2.03906H16.4667V3.83906ZM18.1683 2.93906V10.7437H19.9683V2.93906H18.1683ZM19.0683 9.84374H16.4667V11.6437H19.0683V9.84374ZM15.5667 10.7437V13.3453H17.3667V10.7437H15.5667ZM16.4667 12.4453H13.8651V14.2453H16.4667V12.4453ZM12.9651 13.3453V15.9469H14.7651V13.3453H12.9651ZM13.8651 15.0469H11.2636V16.8469H13.8651V15.0469ZM10.3636 15.9469V18.5484H12.1636V15.9469H10.3636ZM11.2636 17.6484H8.66202V19.4484H11.2636V17.6484Z" fill="#977641"/>
</svg>
