<svg width="22" height="22" viewBox="0 0 22 22" fill="none" xmlns="http://www.w3.org/2000/svg">
<path d="M8.37763 18.5484V15.9469H5.77606V13.3453H3.1745V10.7437H0.572937V2.93906H3.1745V0.337494H8.37763V2.93906H10.9792V0.337494H16.1823V2.93906H18.7839V10.7437H16.1823V13.3453H13.5807V15.9469H10.9792V18.5484H8.37763Z" fill="#977641" fill-opacity="0.3"/>
<path d="M8.37763 18.5484H7.47763V19.4484H8.37763V18.5484ZM8.37763 15.9469H9.27763V15.0469H8.37763V15.9469ZM5.77606 15.9469H4.87606V16.8469H5.77606V15.9469ZM5.77606 13.3453H6.67606V12.4453H5.77606V13.3453ZM3.1745 13.3453H2.2745V14.2453H3.1745V13.3453ZM3.1745 10.7437H4.0745V9.84374H3.1745V10.7437ZM0.572937 10.7437H-0.327063V11.6437H0.572937V10.7437ZM0.572937 2.93906V2.03906H-0.327063V2.93906H0.572937ZM3.1745 2.93906V3.83906H4.0745V2.93906H3.1745ZM3.1745 0.337494V-0.562506H2.2745V0.337494H3.1745ZM8.37763 0.337494H9.27763V-0.562506H8.37763V0.337494ZM8.37763 2.93906H7.47763V3.83906H8.37763V2.93906ZM10.9792 2.93906V3.83906H11.8792V2.93906H10.9792ZM10.9792 0.337494V-0.562506H10.0792V0.337494H10.9792ZM16.1823 0.337494H17.0823V-0.562506H16.1823V0.337494ZM16.1823 2.93906H15.2823V3.83906H16.1823V2.93906ZM18.7839 2.93906H19.6839V2.03906H18.7839V2.93906ZM18.7839 10.7437V11.6437H19.6839V10.7437H18.7839ZM16.1823 10.7437V9.84374H15.2823V10.7437H16.1823ZM16.1823 13.3453V14.2453H17.0823V13.3453H16.1823ZM13.5807 13.3453V12.4453H12.6807V13.3453H13.5807ZM13.5807 15.9469V16.8469H14.4807V15.9469H13.5807ZM10.9792 15.9469V15.0469H10.0792V15.9469H10.9792ZM10.9792 18.5484V19.4484H11.8792V18.5484H10.9792ZM9.27763 18.5484V15.9469H7.47763V18.5484H9.27763ZM8.37763 15.0469H5.77606V16.8469H8.37763V15.0469ZM6.67606 15.9469V13.3453H4.87606V15.9469H6.67606ZM5.77606 12.4453H3.1745V14.2453H5.77606V12.4453ZM4.0745 13.3453V10.7437H2.2745V13.3453H4.0745ZM3.1745 9.84374H0.572937V11.6437H3.1745V9.84374ZM1.47294 10.7437V2.93906H-0.327063V10.7437H1.47294ZM0.572937 3.83906H3.1745V2.03906H0.572937V3.83906ZM4.0745 2.93906V0.337494H2.2745V2.93906H4.0745ZM3.1745 1.23749H8.37763V-0.562506H3.1745V1.23749ZM7.47763 0.337494V2.93906H9.27763V0.337494H7.47763ZM8.37763 3.83906H10.9792V2.03906H8.37763V3.83906ZM11.8792 2.93906V0.337494H10.0792V2.93906H11.8792ZM10.9792 1.23749H16.1823V-0.562506H10.9792V1.23749ZM15.2823 0.337494V2.93906H17.0823V0.337494H15.2823ZM16.1823 3.83906H18.7839V2.03906H16.1823V3.83906ZM17.8839 2.93906V10.7437H19.6839V2.93906H17.8839ZM18.7839 9.84374H16.1823V11.6437H18.7839V9.84374ZM15.2823 10.7437V13.3453H17.0823V10.7437H15.2823ZM16.1823 12.4453H13.5807V14.2453H16.1823V12.4453ZM12.6807 13.3453V15.9469H14.4807V13.3453H12.6807ZM13.5807 15.0469H10.9792V16.8469H13.5807V15.0469ZM10.0792 15.9469V18.5484H11.8792V15.9469H10.0792ZM10.9792 17.6484H8.37763V19.4484H10.9792V17.6484Z" fill="#977641"/>
</svg>
