<svg width="393" height="98" viewBox="0 0 393 98" fill="none" xmlns="http://www.w3.org/2000/svg">
<circle cx="21.5" cy="6.5" r="5.5" fill="#450000" fill-opacity="0.22"/>
<rect x="16.5" y="1.5" width="10" height="10" rx="5" stroke="black" stroke-opacity="0.1"/>
<circle cx="46.5" cy="6.5" r="5.5" fill="#450000" fill-opacity="0.22"/>
<rect x="41.5" y="1.5" width="10" height="10" rx="5" stroke="black" stroke-opacity="0.1"/>
<circle cx="71.5" cy="6.5" r="5.5" fill="#450000" fill-opacity="0.22"/>
<rect x="66.5" y="1.5" width="10" height="10" rx="5" stroke="black" stroke-opacity="0.1"/>
<circle cx="96.5" cy="6.5" r="5.5" fill="#450000" fill-opacity="0.22"/>
<rect x="91.5" y="1.5" width="10" height="10" rx="5" stroke="black" stroke-opacity="0.1"/>
<circle cx="121.5" cy="6.5" r="5.5" fill="#450000" fill-opacity="0.22"/>
<rect x="116.5" y="1.5" width="10" height="10" rx="5" stroke="black" stroke-opacity="0.1"/>
<circle cx="146.5" cy="6.5" r="5.5" fill="#450000" fill-opacity="0.22"/>
<rect x="141.5" y="1.5" width="10" height="10" rx="5" stroke="black" stroke-opacity="0.1"/>
<circle cx="171.5" cy="6.5" r="5.5" fill="#450000" fill-opacity="0.22"/>
<rect x="166.5" y="1.5" width="10" height="10" rx="5" stroke="black" stroke-opacity="0.1"/>
<circle cx="196.5" cy="6.5" r="5.5" fill="#450000" fill-opacity="0.22"/>
<rect x="191.5" y="1.5" width="10" height="10" rx="5" stroke="black" stroke-opacity="0.1"/>
<circle cx="221.5" cy="6.5" r="5.5" fill="#450000" fill-opacity="0.22"/>
<rect x="216.5" y="1.5" width="10" height="10" rx="5" stroke="black" stroke-opacity="0.1"/>
<circle cx="246.5" cy="6.5" r="5.5" fill="#450000" fill-opacity="0.22"/>
<rect x="241.5" y="1.5" width="10" height="10" rx="5" stroke="black" stroke-opacity="0.1"/>
<circle cx="271.5" cy="6.5" r="5.5" fill="#450000" fill-opacity="0.22"/>
<rect x="266.5" y="1.5" width="10" height="10" rx="5" stroke="black" stroke-opacity="0.1"/>
<circle cx="296.5" cy="6.5" r="5.5" fill="#450000" fill-opacity="0.22"/>
<rect x="291.5" y="1.5" width="10" height="10" rx="5" stroke="black" stroke-opacity="0.1"/>
<circle cx="321.5" cy="6.5" r="5.5" fill="#450000" fill-opacity="0.22"/>
<rect x="316.5" y="1.5" width="10" height="10" rx="5" stroke="black" stroke-opacity="0.1"/>
<circle cx="346.5" cy="6.5" r="5.5" fill="#450000" fill-opacity="0.22"/>
<rect x="341.5" y="1.5" width="10" height="10" rx="5" stroke="black" stroke-opacity="0.1"/>
<circle cx="371.5" cy="6.5" r="5.5" fill="#450000" fill-opacity="0.22"/>
<rect x="366.5" y="1.5" width="10" height="10" rx="5" stroke="black" stroke-opacity="0.1"/>
<circle cx="9" cy="23.5" r="5.5" fill="#450000" fill-opacity="0.22"/>
<rect x="4" y="18.5" width="10" height="10" rx="5" stroke="black" stroke-opacity="0.1"/>
<circle cx="34" cy="23.5" r="5.5" fill="#450000" fill-opacity="0.22"/>
<rect x="29" y="18.5" width="10" height="10" rx="5" stroke="black" stroke-opacity="0.1"/>
<circle cx="59" cy="23.5" r="5.5" fill="#450000" fill-opacity="0.22"/>
<rect x="54" y="18.5" width="10" height="10" rx="5" stroke="black" stroke-opacity="0.1"/>
<circle cx="84" cy="23.5" r="5.5" fill="#450000" fill-opacity="0.22"/>
<rect x="79" y="18.5" width="10" height="10" rx="5" stroke="black" stroke-opacity="0.1"/>
<circle cx="109" cy="23.5" r="5.5" fill="#450000" fill-opacity="0.22"/>
<rect x="104" y="18.5" width="10" height="10" rx="5" stroke="black" stroke-opacity="0.1"/>
<circle cx="134" cy="23.5" r="5.5" fill="#450000" fill-opacity="0.22"/>
<rect x="129" y="18.5" width="10" height="10" rx="5" stroke="black" stroke-opacity="0.1"/>
<circle cx="159" cy="23.5" r="5.5" fill="#450000" fill-opacity="0.22"/>
<rect x="154" y="18.5" width="10" height="10" rx="5" stroke="black" stroke-opacity="0.1"/>
<circle cx="184" cy="23.5" r="5.5" fill="#450000" fill-opacity="0.22"/>
<rect x="179" y="18.5" width="10" height="10" rx="5" stroke="black" stroke-opacity="0.1"/>
<circle cx="209" cy="23.5" r="5.5" fill="#450000" fill-opacity="0.22"/>
<rect x="204" y="18.5" width="10" height="10" rx="5" stroke="black" stroke-opacity="0.1"/>
<circle cx="234" cy="23.5" r="5.5" fill="#450000" fill-opacity="0.22"/>
<rect x="229" y="18.5" width="10" height="10" rx="5" stroke="black" stroke-opacity="0.1"/>
<circle cx="259" cy="23.5" r="5.5" fill="#450000" fill-opacity="0.22"/>
<rect x="254" y="18.5" width="10" height="10" rx="5" stroke="black" stroke-opacity="0.1"/>
<circle cx="284" cy="23.5" r="5.5" fill="#450000" fill-opacity="0.22"/>
<rect x="279" y="18.5" width="10" height="10" rx="5" stroke="black" stroke-opacity="0.1"/>
<circle cx="309" cy="23.5" r="5.5" fill="#450000" fill-opacity="0.22"/>
<rect x="304" y="18.5" width="10" height="10" rx="5" stroke="black" stroke-opacity="0.1"/>
<circle cx="334" cy="23.5" r="5.5" fill="#450000" fill-opacity="0.22"/>
<rect x="329" y="18.5" width="10" height="10" rx="5" stroke="black" stroke-opacity="0.1"/>
<circle cx="359" cy="23.5" r="5.5" fill="#450000" fill-opacity="0.22"/>
<rect x="354" y="18.5" width="10" height="10" rx="5" stroke="black" stroke-opacity="0.1"/>
<circle cx="384" cy="23.5" r="5.5" fill="#450000" fill-opacity="0.22"/>
<rect x="379" y="18.5" width="10" height="10" rx="5" stroke="black" stroke-opacity="0.1"/>
<circle cx="21.5" cy="40.5" r="5.5" fill="#450000" fill-opacity="0.22"/>
<rect x="16.5" y="35.5" width="10" height="10" rx="5" stroke="black" stroke-opacity="0.1"/>
<circle cx="46.5" cy="40.5" r="5.5" fill="#450000" fill-opacity="0.22"/>
<rect x="41.5" y="35.5" width="10" height="10" rx="5" stroke="black" stroke-opacity="0.1"/>
<circle cx="71.5" cy="40.5" r="5.5" fill="#450000" fill-opacity="0.22"/>
<rect x="66.5" y="35.5" width="10" height="10" rx="5" stroke="black" stroke-opacity="0.1"/>
<circle cx="96.5" cy="40.5" r="5.5" fill="#450000" fill-opacity="0.22"/>
<rect x="91.5" y="35.5" width="10" height="10" rx="5" stroke="black" stroke-opacity="0.1"/>
<circle cx="121.5" cy="40.5" r="5.5" fill="#450000" fill-opacity="0.22"/>
<rect x="116.5" y="35.5" width="10" height="10" rx="5" stroke="black" stroke-opacity="0.1"/>
<circle cx="146.5" cy="40.5" r="5.5" fill="#450000" fill-opacity="0.22"/>
<rect x="141.5" y="35.5" width="10" height="10" rx="5" stroke="black" stroke-opacity="0.1"/>
<circle cx="171.5" cy="40.5" r="5.5" fill="#450000" fill-opacity="0.22"/>
<rect x="166.5" y="35.5" width="10" height="10" rx="5" stroke="black" stroke-opacity="0.1"/>
<circle cx="196.5" cy="40.5" r="5.5" fill="#450000" fill-opacity="0.22"/>
<rect x="191.5" y="35.5" width="10" height="10" rx="5" stroke="black" stroke-opacity="0.1"/>
<circle cx="221.5" cy="40.5" r="5.5" fill="#450000" fill-opacity="0.22"/>
<rect x="216.5" y="35.5" width="10" height="10" rx="5" stroke="black" stroke-opacity="0.1"/>
<circle cx="246.5" cy="40.5" r="5.5" fill="#450000" fill-opacity="0.22"/>
<rect x="241.5" y="35.5" width="10" height="10" rx="5" stroke="black" stroke-opacity="0.1"/>
<circle cx="271.5" cy="40.5" r="5.5" fill="#450000" fill-opacity="0.22"/>
<rect x="266.5" y="35.5" width="10" height="10" rx="5" stroke="black" stroke-opacity="0.1"/>
<circle cx="296.5" cy="40.5" r="5.5" fill="#450000" fill-opacity="0.22"/>
<rect x="291.5" y="35.5" width="10" height="10" rx="5" stroke="black" stroke-opacity="0.1"/>
<circle cx="321.5" cy="40.5" r="5.5" fill="#450000" fill-opacity="0.22"/>
<rect x="316.5" y="35.5" width="10" height="10" rx="5" stroke="black" stroke-opacity="0.1"/>
<circle cx="346.5" cy="40.5" r="5.5" fill="#450000" fill-opacity="0.22"/>
<rect x="341.5" y="35.5" width="10" height="10" rx="5" stroke="black" stroke-opacity="0.1"/>
<circle cx="371.5" cy="40.5" r="5.5" fill="#450000" fill-opacity="0.22"/>
<rect x="366.5" y="35.5" width="10" height="10" rx="5" stroke="black" stroke-opacity="0.1"/>
<circle cx="9" cy="57.5" r="5.5" fill="#450000" fill-opacity="0.22"/>
<rect x="4" y="52.5" width="10" height="10" rx="5" stroke="black" stroke-opacity="0.1"/>
<circle cx="34" cy="57.5" r="5.5" fill="#450000" fill-opacity="0.22"/>
<rect x="29" y="52.5" width="10" height="10" rx="5" stroke="black" stroke-opacity="0.1"/>
<circle cx="59" cy="57.5" r="5.5" fill="#450000" fill-opacity="0.22"/>
<rect x="54" y="52.5" width="10" height="10" rx="5" stroke="black" stroke-opacity="0.1"/>
<circle cx="84" cy="57.5" r="5.5" fill="#450000" fill-opacity="0.22"/>
<rect x="79" y="52.5" width="10" height="10" rx="5" stroke="black" stroke-opacity="0.1"/>
<circle cx="109" cy="57.5" r="5.5" fill="#450000" fill-opacity="0.22"/>
<rect x="104" y="52.5" width="10" height="10" rx="5" stroke="black" stroke-opacity="0.1"/>
<circle cx="134" cy="57.5" r="5.5" fill="#450000" fill-opacity="0.22"/>
<rect x="129" y="52.5" width="10" height="10" rx="5" stroke="black" stroke-opacity="0.1"/>
<circle cx="159" cy="57.5" r="5.5" fill="#450000" fill-opacity="0.22"/>
<rect x="154" y="52.5" width="10" height="10" rx="5" stroke="black" stroke-opacity="0.1"/>
<circle cx="184" cy="57.5" r="5.5" fill="#450000" fill-opacity="0.22"/>
<rect x="179" y="52.5" width="10" height="10" rx="5" stroke="black" stroke-opacity="0.1"/>
<circle cx="209" cy="57.5" r="5.5" fill="#450000" fill-opacity="0.22"/>
<rect x="204" y="52.5" width="10" height="10" rx="5" stroke="black" stroke-opacity="0.1"/>
<circle cx="234" cy="57.5" r="5.5" fill="#450000" fill-opacity="0.22"/>
<rect x="229" y="52.5" width="10" height="10" rx="5" stroke="black" stroke-opacity="0.1"/>
<circle cx="259" cy="57.5" r="5.5" fill="#450000" fill-opacity="0.22"/>
<rect x="254" y="52.5" width="10" height="10" rx="5" stroke="black" stroke-opacity="0.1"/>
<circle cx="284" cy="57.5" r="5.5" fill="#450000" fill-opacity="0.22"/>
<rect x="279" y="52.5" width="10" height="10" rx="5" stroke="black" stroke-opacity="0.1"/>
<circle cx="309" cy="57.5" r="5.5" fill="#450000" fill-opacity="0.22"/>
<rect x="304" y="52.5" width="10" height="10" rx="5" stroke="black" stroke-opacity="0.1"/>
<circle cx="334" cy="57.5" r="5.5" fill="#450000" fill-opacity="0.22"/>
<rect x="329" y="52.5" width="10" height="10" rx="5" stroke="black" stroke-opacity="0.1"/>
<circle cx="359" cy="57.5" r="5.5" fill="#450000" fill-opacity="0.22"/>
<rect x="354" y="52.5" width="10" height="10" rx="5" stroke="black" stroke-opacity="0.1"/>
<circle cx="384" cy="57.5" r="5.5" fill="#450000" fill-opacity="0.22"/>
<rect x="379" y="52.5" width="10" height="10" rx="5" stroke="black" stroke-opacity="0.1"/>
<circle cx="21.5" cy="74.5" r="5.5" fill="#450000" fill-opacity="0.22"/>
<rect x="16.5" y="69.5" width="10" height="10" rx="5" stroke="black" stroke-opacity="0.1"/>
<circle cx="46.5" cy="74.5" r="5.5" fill="#450000" fill-opacity="0.22"/>
<rect x="41.5" y="69.5" width="10" height="10" rx="5" stroke="black" stroke-opacity="0.1"/>
<circle cx="71.5" cy="74.5" r="5.5" fill="#450000" fill-opacity="0.22"/>
<rect x="66.5" y="69.5" width="10" height="10" rx="5" stroke="black" stroke-opacity="0.1"/>
<circle cx="96.5" cy="74.5" r="5.5" fill="#450000" fill-opacity="0.22"/>
<rect x="91.5" y="69.5" width="10" height="10" rx="5" stroke="black" stroke-opacity="0.1"/>
<circle cx="121.5" cy="74.5" r="5.5" fill="#450000" fill-opacity="0.22"/>
<rect x="116.5" y="69.5" width="10" height="10" rx="5" stroke="black" stroke-opacity="0.1"/>
<circle cx="146.5" cy="74.5" r="5.5" fill="#450000" fill-opacity="0.22"/>
<rect x="141.5" y="69.5" width="10" height="10" rx="5" stroke="black" stroke-opacity="0.1"/>
<circle cx="171.5" cy="74.5" r="5.5" fill="#450000" fill-opacity="0.22"/>
<rect x="166.5" y="69.5" width="10" height="10" rx="5" stroke="black" stroke-opacity="0.1"/>
<circle cx="196.5" cy="74.5" r="5.5" fill="#450000" fill-opacity="0.22"/>
<rect x="191.5" y="69.5" width="10" height="10" rx="5" stroke="black" stroke-opacity="0.1"/>
<circle cx="221.5" cy="74.5" r="5.5" fill="#450000" fill-opacity="0.22"/>
<rect x="216.5" y="69.5" width="10" height="10" rx="5" stroke="black" stroke-opacity="0.1"/>
<circle cx="246.5" cy="74.5" r="5.5" fill="#450000" fill-opacity="0.22"/>
<rect x="241.5" y="69.5" width="10" height="10" rx="5" stroke="black" stroke-opacity="0.1"/>
<circle cx="271.5" cy="74.5" r="5.5" fill="#450000" fill-opacity="0.22"/>
<rect x="266.5" y="69.5" width="10" height="10" rx="5" stroke="black" stroke-opacity="0.1"/>
<circle cx="296.5" cy="74.5" r="5.5" fill="#450000" fill-opacity="0.22"/>
<rect x="291.5" y="69.5" width="10" height="10" rx="5" stroke="black" stroke-opacity="0.1"/>
<circle cx="321.5" cy="74.5" r="5.5" fill="#450000" fill-opacity="0.22"/>
<rect x="316.5" y="69.5" width="10" height="10" rx="5" stroke="black" stroke-opacity="0.1"/>
<circle cx="346.5" cy="74.5" r="5.5" fill="#450000" fill-opacity="0.22"/>
<rect x="341.5" y="69.5" width="10" height="10" rx="5" stroke="black" stroke-opacity="0.1"/>
<circle cx="371.5" cy="74.5" r="5.5" fill="#450000" fill-opacity="0.22"/>
<rect x="366.5" y="69.5" width="10" height="10" rx="5" stroke="black" stroke-opacity="0.1"/>
<circle cx="9" cy="91.5" r="5.5" fill="#450000" fill-opacity="0.22"/>
<rect x="4" y="86.5" width="10" height="10" rx="5" stroke="black" stroke-opacity="0.1"/>
<circle cx="34" cy="91.5" r="5.5" fill="#450000" fill-opacity="0.22"/>
<rect x="29" y="86.5" width="10" height="10" rx="5" stroke="black" stroke-opacity="0.1"/>
<circle cx="59" cy="91.5" r="5.5" fill="#450000" fill-opacity="0.22"/>
<rect x="54" y="86.5" width="10" height="10" rx="5" stroke="black" stroke-opacity="0.1"/>
<circle cx="84" cy="91.5" r="5.5" fill="#450000" fill-opacity="0.22"/>
<rect x="79" y="86.5" width="10" height="10" rx="5" stroke="black" stroke-opacity="0.1"/>
<circle cx="109" cy="91.5" r="5.5" fill="#450000" fill-opacity="0.22"/>
<rect x="104" y="86.5" width="10" height="10" rx="5" stroke="black" stroke-opacity="0.1"/>
<circle cx="134" cy="91.5" r="5.5" fill="#450000" fill-opacity="0.22"/>
<rect x="129" y="86.5" width="10" height="10" rx="5" stroke="black" stroke-opacity="0.1"/>
<circle cx="159" cy="91.5" r="5.5" fill="#450000" fill-opacity="0.22"/>
<rect x="154" y="86.5" width="10" height="10" rx="5" stroke="black" stroke-opacity="0.1"/>
<circle cx="184" cy="91.5" r="5.5" fill="#450000" fill-opacity="0.22"/>
<rect x="179" y="86.5" width="10" height="10" rx="5" stroke="black" stroke-opacity="0.1"/>
<circle cx="209" cy="91.5" r="5.5" fill="#450000" fill-opacity="0.22"/>
<rect x="204" y="86.5" width="10" height="10" rx="5" stroke="black" stroke-opacity="0.1"/>
<circle cx="234" cy="91.5" r="5.5" fill="#450000" fill-opacity="0.22"/>
<rect x="229" y="86.5" width="10" height="10" rx="5" stroke="black" stroke-opacity="0.1"/>
<circle cx="259" cy="91.5" r="5.5" fill="#450000" fill-opacity="0.22"/>
<rect x="254" y="86.5" width="10" height="10" rx="5" stroke="black" stroke-opacity="0.1"/>
<circle cx="284" cy="91.5" r="5.5" fill="#450000" fill-opacity="0.22"/>
<rect x="279" y="86.5" width="10" height="10" rx="5" stroke="black" stroke-opacity="0.1"/>
<circle cx="309" cy="91.5" r="5.5" fill="#450000" fill-opacity="0.22"/>
<rect x="304" y="86.5" width="10" height="10" rx="5" stroke="black" stroke-opacity="0.1"/>
<circle cx="334" cy="91.5" r="5.5" fill="#450000" fill-opacity="0.22"/>
<rect x="329" y="86.5" width="10" height="10" rx="5" stroke="black" stroke-opacity="0.1"/>
<circle cx="359" cy="91.5" r="5.5" fill="#450000" fill-opacity="0.22"/>
<rect x="354" y="86.5" width="10" height="10" rx="5" stroke="black" stroke-opacity="0.1"/>
<circle cx="384" cy="91.5" r="5.5" fill="#450000" fill-opacity="0.22"/>
<rect x="379" y="86.5" width="10" height="10" rx="5" stroke="black" stroke-opacity="0.1"/>
</svg>
